<svg width="78" height="76" viewBox="0 0 78 76" fill="none" xmlns="http://www.w3.org/2000/svg">
<circle cx="40.5" cy="38.5" r="37.5" fill="#86311F"/>
<circle cx="40.5" cy="38.5" r="35.5" fill="#14161D"/>
<circle cx="35.5" cy="35.5" r="35.5" fill="#14161D"/>
<path d="M16.9403 47L26.6989 27.696V27.5256H15.4489V25.1818H29.4261V27.6534L19.7102 47H16.9403ZM40.0449 47.2983C38.4398 47.2983 37.0726 46.8615 35.9434 45.9879C34.8141 45.1072 33.9512 43.8324 33.3546 42.1634C32.758 40.4872 32.4597 38.4631 32.4597 36.0909C32.4597 33.733 32.758 31.7195 33.3546 30.0504C33.9583 28.3743 34.8248 27.0959 35.954 26.2152C37.0904 25.3274 38.454 24.8835 40.0449 24.8835C41.6358 24.8835 42.9959 25.3274 44.1252 26.2152C45.2615 27.0959 46.128 28.3743 46.7246 30.0504C47.3283 31.7195 47.6301 33.733 47.6301 36.0909C47.6301 38.4631 47.3319 40.4872 46.7353 42.1634C46.1387 43.8324 45.2757 45.1072 44.1465 45.9879C43.0172 46.8615 41.65 47.2983 40.0449 47.2983ZM40.0449 44.9545C41.6358 44.9545 42.8716 44.1875 43.7523 42.6534C44.633 41.1193 45.0733 38.9318 45.0733 36.0909C45.0733 34.2017 44.8709 32.593 44.4661 31.2649C44.0684 29.9368 43.4931 28.9247 42.7402 28.2287C41.9945 27.5327 41.0961 27.1847 40.0449 27.1847C38.4682 27.1847 37.236 27.9624 36.3482 29.5178C35.4604 31.0661 35.0165 33.2571 35.0165 36.0909C35.0165 37.9801 35.2154 39.5852 35.6131 40.9062C36.0108 42.2273 36.5826 43.2322 37.3283 43.9212C38.0811 44.6101 38.9867 44.9545 40.0449 44.9545ZM62.8006 42.9091V41.7585C62.8006 40.9631 62.964 40.2351 63.2907 39.5746C63.6245 38.907 64.1074 38.3743 64.7395 37.9766C65.3787 37.5717 66.1529 37.3693 67.062 37.3693C67.9853 37.3693 68.7594 37.5717 69.3844 37.9766C70.0094 38.3743 70.4817 38.907 70.8013 39.5746C71.1209 40.2351 71.2807 40.9631 71.2807 41.7585V42.9091C71.2807 43.7045 71.1174 44.4361 70.7907 45.1037C70.4711 45.7642 69.9952 46.2969 69.3631 46.7017C68.7381 47.0994 67.9711 47.2983 67.062 47.2983C66.1387 47.2983 65.361 47.0994 64.7289 46.7017C64.0968 46.2969 63.6174 45.7642 63.2907 45.1037C62.964 44.4361 62.8006 43.7045 62.8006 42.9091ZM64.9739 41.7585V42.9091C64.9739 43.5696 65.1301 44.1626 65.4426 44.6882C65.7551 45.2067 66.2949 45.4659 67.062 45.4659C67.8077 45.4659 68.3333 45.2067 68.6387 44.6882C68.9512 44.1626 69.1074 43.5696 69.1074 42.9091V41.7585C69.1074 41.098 68.9583 40.5085 68.66 39.9901C68.3617 39.4645 67.829 39.2017 67.062 39.2017C66.3162 39.2017 65.78 39.4645 65.4533 39.9901C65.1337 40.5085 64.9739 41.098 64.9739 41.7585ZM51.9341 30.4233V29.2727C51.9341 28.4773 52.0975 27.7493 52.4242 27.0888C52.758 26.4212 53.2409 25.8885 53.873 25.4908C54.5123 25.0859 55.2864 24.8835 56.1955 24.8835C57.1188 24.8835 57.8929 25.0859 58.5179 25.4908C59.1429 25.8885 59.6152 26.4212 59.9348 27.0888C60.2544 27.7493 60.4142 28.4773 60.4142 29.2727V30.4233C60.4142 31.2187 60.2509 31.9503 59.9242 32.6179C59.6046 33.2784 59.1287 33.8111 58.4966 34.2159C57.8716 34.6136 57.1046 34.8125 56.1955 34.8125C55.2722 34.8125 54.4945 34.6136 53.8624 34.2159C53.2303 33.8111 52.7509 33.2784 52.4242 32.6179C52.0975 31.9503 51.9341 31.2187 51.9341 30.4233ZM54.1074 29.2727V30.4233C54.1074 31.0838 54.2637 31.6768 54.5762 32.2024C54.8887 32.7209 55.4284 32.9801 56.1955 32.9801C56.9412 32.9801 57.4668 32.7209 57.7722 32.2024C58.0847 31.6768 58.2409 31.0838 58.2409 30.4233V29.2727C58.2409 28.6122 58.0918 28.0227 57.7935 27.5043C57.4952 26.9787 56.9625 26.7159 56.1955 26.7159C55.4498 26.7159 54.9135 26.9787 54.5868 27.5043C54.2672 28.0227 54.1074 28.6122 54.1074 29.2727ZM52.7438 47L67.7438 25.1818H70.1728L55.1728 47H52.7438Z" fill="#86311F"/>
</svg>
