<svg width="75" height="75" viewBox="0 0 75 75" fill="none" xmlns="http://www.w3.org/2000/svg">
<circle cx="37.5" cy="37.5" r="37.5" fill="#57AB23"/>
<circle cx="37.5" cy="37.5" r="35.5" fill="#14161D"/>
<ellipse cx="35" cy="34" rx="25" ry="34" fill="#14161D"/>
<path d="M16.2045 25.8835C17.0994 25.8906 17.9943 26.0611 18.8892 26.3949C19.7841 26.7287 20.6009 27.2827 21.3395 28.0568C22.0781 28.8239 22.6712 29.8714 23.1186 31.1996C23.5661 32.5277 23.7898 34.1932 23.7898 36.196C23.7898 38.1349 23.6051 39.8572 23.2358 41.3629C22.8736 42.8615 22.348 44.1257 21.6591 45.1555C20.9773 46.1854 20.1463 46.9666 19.1662 47.4993C18.1932 48.032 17.0923 48.2983 15.8636 48.2983C14.642 48.2983 13.5518 48.0568 12.593 47.5739C11.6413 47.0838 10.8601 46.4055 10.2493 45.5391C9.6456 44.6655 9.25852 43.6534 9.08807 42.5028H11.6875C11.9219 43.5043 12.3871 44.3317 13.0831 44.9851C13.7862 45.6314 14.7131 45.9545 15.8636 45.9545C17.5469 45.9545 18.875 45.2195 19.848 43.7493C20.8281 42.2791 21.3182 40.2017 21.3182 37.517H21.1477C20.75 38.1136 20.2777 38.6286 19.7308 39.0618C19.1839 39.495 18.5767 39.8288 17.9091 40.0632C17.2415 40.2976 16.5313 40.4148 15.7784 40.4148C14.5284 40.4148 13.3814 40.1058 12.3374 39.4879C11.3004 38.8629 10.4695 38.0071 9.84446 36.9205C9.22656 35.8267 8.91761 34.5767 8.91761 33.1705C8.91761 31.8352 9.21591 30.6136 9.8125 29.5057C10.4162 28.3906 11.2614 27.5028 12.348 26.8423C13.4418 26.1818 14.7273 25.8622 16.2045 25.8835ZM16.2045 28.2273C15.3097 28.2273 14.5036 28.451 13.7862 28.8984C13.076 29.3388 12.5114 29.9354 12.0923 30.6882C11.6804 31.4339 11.4744 32.2614 11.4744 33.1705C11.4744 34.0795 11.6733 34.907 12.071 35.6527C12.4759 36.3913 13.0263 36.9808 13.7223 37.4212C14.4254 37.8544 15.2244 38.071 16.1193 38.071C16.794 38.071 17.4226 37.9396 18.005 37.6768C18.5874 37.407 19.0952 37.0412 19.5284 36.5795C19.9688 36.1108 20.3132 35.5817 20.5618 34.9922C20.8104 34.3956 20.9347 33.7741 20.9347 33.1278C20.9347 32.2756 20.7287 31.4766 20.3168 30.7308C19.9119 29.9851 19.3509 29.3814 18.6335 28.9197C17.9233 28.4581 17.1136 28.2273 16.2045 28.2273ZM34.9679 48.2983C33.5048 48.2983 32.2122 48.0391 31.09 47.5206C29.975 46.995 29.1049 46.2741 28.4799 45.358C27.8549 44.4347 27.546 43.3835 27.5531 42.2045C27.546 41.2812 27.7271 40.429 28.0964 39.6477C28.4657 38.8594 28.97 38.2024 29.6092 37.6768C30.2555 37.1442 30.9764 36.8068 31.7718 36.6648V36.5369C30.7278 36.267 29.8968 35.6811 29.2789 34.7791C28.661 33.87 28.3556 32.8366 28.3627 31.679C28.3556 30.571 28.6362 29.5803 29.2044 28.7067C29.7725 27.8331 30.5538 27.1442 31.5481 26.6399C32.5495 26.1357 33.6895 25.8835 34.9679 25.8835C36.2321 25.8835 37.3613 26.1357 38.3556 26.6399C39.35 27.1442 40.1312 27.8331 40.6994 28.7067C41.2747 29.5803 41.5659 30.571 41.573 31.679C41.5659 32.8366 41.2498 33.87 40.6248 34.7791C40.0069 35.6811 39.1866 36.267 38.1639 36.5369V36.6648C38.9522 36.8068 39.6625 37.1442 40.2946 37.6768C40.9267 38.2024 41.4309 38.8594 41.8074 39.6477C42.1838 40.429 42.3755 41.2812 42.3826 42.2045C42.3755 43.3835 42.0559 44.4347 41.4238 45.358C40.7988 46.2741 39.9288 46.995 38.8137 47.5206C37.7058 48.0391 36.4238 48.2983 34.9679 48.2983ZM34.9679 45.9545C35.9551 45.9545 36.8074 45.7947 37.5247 45.4751C38.242 45.1555 38.796 44.7045 39.1866 44.1222C39.5772 43.5398 39.7761 42.858 39.7832 42.0767C39.7761 41.2528 39.563 40.5249 39.144 39.8928C38.725 39.2607 38.1532 38.7635 37.4288 38.4013C36.7115 38.0391 35.8912 37.858 34.9679 37.858C34.0375 37.858 33.2065 38.0391 32.475 38.4013C31.7505 38.7635 31.1788 39.2607 30.7598 39.8928C30.3478 40.5249 30.1454 41.2528 30.1525 42.0767C30.1454 42.858 30.3336 43.5398 30.7172 44.1222C31.1078 44.7045 31.6653 45.1555 32.3897 45.4751C33.1142 45.7947 33.9735 45.9545 34.9679 45.9545ZM34.9679 35.5994C35.7491 35.5994 36.4416 35.4432 37.0453 35.1307C37.6561 34.8182 38.1355 34.3814 38.4835 33.8203C38.8315 33.2592 39.0091 32.6023 39.0162 31.8494C39.0091 31.1108 38.835 30.468 38.4941 29.9212C38.1532 29.3672 37.6809 28.9411 37.0772 28.6428C36.4735 28.3374 35.7704 28.1847 34.9679 28.1847C34.1511 28.1847 33.4373 28.3374 32.8265 28.6428C32.2157 28.9411 31.7434 29.3672 31.4096 29.9212C31.0758 30.468 30.9125 31.1108 30.9196 31.8494C30.9125 32.6023 31.0794 33.2592 31.4203 33.8203C31.7683 34.3814 32.2477 34.8182 32.8585 35.1307C33.4693 35.4432 34.1724 35.5994 34.9679 35.5994ZM57.5877 43.9091V42.7585C57.5877 41.9631 57.7511 41.2351 58.0778 40.5746C58.4116 39.907 58.8945 39.3743 59.5266 38.9766C60.1658 38.5717 60.94 38.3693 61.8491 38.3693C62.7724 38.3693 63.5465 38.5717 64.1715 38.9766C64.7965 39.3743 65.2688 39.907 65.5884 40.5746C65.908 41.2351 66.0678 41.9631 66.0678 42.7585V43.9091C66.0678 44.7045 65.9045 45.4361 65.5778 46.1037C65.2582 46.7642 64.7823 47.2969 64.1502 47.7017C63.5252 48.0994 62.7582 48.2983 61.8491 48.2983C60.9258 48.2983 60.1481 48.0994 59.516 47.7017C58.8839 47.2969 58.4045 46.7642 58.0778 46.1037C57.7511 45.4361 57.5877 44.7045 57.5877 43.9091ZM59.761 42.7585V43.9091C59.761 44.5696 59.9173 45.1626 60.2298 45.6882C60.5423 46.2067 61.082 46.4659 61.8491 46.4659C62.5948 46.4659 63.1204 46.2067 63.4258 45.6882C63.7383 45.1626 63.8945 44.5696 63.8945 43.9091V42.7585C63.8945 42.098 63.7454 41.5085 63.4471 40.9901C63.1488 40.4645 62.6161 40.2017 61.8491 40.2017C61.1033 40.2017 60.5671 40.4645 60.2404 40.9901C59.9208 41.5085 59.761 42.098 59.761 42.7585ZM46.7212 31.4233V30.2727C46.7212 29.4773 46.8846 28.7493 47.2113 28.0888C47.5451 27.4212 48.0281 26.8885 48.6602 26.4908C49.2994 26.0859 50.0735 25.8835 50.9826 25.8835C51.9059 25.8835 52.68 26.0859 53.305 26.4908C53.93 26.8885 54.4023 27.4212 54.7219 28.0888C55.0415 28.7493 55.2013 29.4773 55.2013 30.2727V31.4233C55.2013 32.2187 55.038 32.9503 54.7113 33.6179C54.3917 34.2784 53.9158 34.8111 53.2837 35.2159C52.6587 35.6136 51.8917 35.8125 50.9826 35.8125C50.0593 35.8125 49.2816 35.6136 48.6495 35.2159C48.0174 34.8111 47.538 34.2784 47.2113 33.6179C46.8846 32.9503 46.7212 32.2187 46.7212 31.4233ZM48.8945 30.2727V31.4233C48.8945 32.0838 49.0508 32.6768 49.3633 33.2024C49.6758 33.7209 50.2156 33.9801 50.9826 33.9801C51.7283 33.9801 52.2539 33.7209 52.5593 33.2024C52.8718 32.6768 53.0281 32.0838 53.0281 31.4233V30.2727C53.0281 29.6122 52.8789 29.0227 52.5806 28.5043C52.2823 27.9787 51.7496 27.7159 50.9826 27.7159C50.2369 27.7159 49.7006 27.9787 49.3739 28.5043C49.0543 29.0227 48.8945 29.6122 48.8945 30.2727ZM47.5309 48L62.5309 26.1818H64.9599L49.9599 48H47.5309Z" fill="#57AB23"/>
</svg>
